<svg width="221" height="191" viewBox="0 0 221 191" fill="none" xmlns="http://www.w3.org/2000/svg">
<path fill-rule="evenodd" clip-rule="evenodd" d="M215.5 65.3107C211.099 63.5687 199.64 60.0086 188.668 50.2923C187.017 48.8021 185.582 48.8348 184.517 50.3621C182.715 53.0309 188.3 54.7162 195.438 59.4859C202.183 64.0637 194.799 64.3962 182.271 64.6201C118.407 65.7039 105.307 79.255 95.6958 83.0041L91.0908 83.1591C66.981 87.4904 13.9845 112.341 2.21485 120.608C-0.0424708 124.454 1.63777 122.558 14.9483 115.548C40.2922 102.271 64.9415 92.9881 82.2499 90.1861C86.487 89.5099 86.471 89.3657 81.9264 93.4927C62.7532 110.777 76.0076 129.128 100.085 119.156C121.178 110.422 127.395 90.6344 110.163 85.0423C105.85 83.6674 103.851 81.4084 110.145 78.5467C144.073 63.0992 179.715 69.7919 193.886 69.4666C198.773 69.3471 202.267 71.906 191.943 75.3753C173.29 81.6159 167.476 80.1411 166.904 82.6089C165.97 86.2656 168.973 86.0275 182.317 81.3723C198.355 75.7989 205.429 73.6763 212.79 72.326C224.106 70.2638 220.257 67.1926 215.5 65.3107ZM115.956 101.467C112.221 110.872 94.1902 120.774 84.1656 119.201C71.0198 117.092 73.6309 102.518 89.9848 90.9543C96.3278 86.4606 104.058 88.5956 104.718 88.5602C113.312 91.781 118.049 96.2952 115.956 101.467Z" fill="#15141A"/>
</svg>
