<svg width="54" height="54" viewBox="0 0 54 54" fill="none" xmlns="http://www.w3.org/2000/svg">
<path fill-rule="evenodd" clip-rule="evenodd" d="M51.6868 23.5045C50.1231 22.3592 47.1814 19.6974 44.3956 17.3906C39.3381 13.1872 39.6889 13.424 39 14.0732C37.9733 15.0406 37.3391 17.8859 37.4064 21.205L37.4282 21.9046C30.3878 22.3629 28.7077 22.6368 18.8099 23.9328C6.96615 25.4912 5.52819 26.6715 1.82327 27.1512C-0.773186 27.481 0.110296 29.42 2.83526 29.3618C6.48482 29.2835 13.8759 29.7387 19.5593 30.3844C21.0568 30.5663 36.4592 32.0268 36.4592 32.0268C35.8776 37.2012 35.7307 37.7761 36.4509 38.1885C36.7363 38.3561 36.8635 38.3016 37.6174 37.6131C39.9817 35.4943 48.4969 30.1329 51.724 27.4411C54.2483 25.3026 53.4191 24.7745 51.6868 23.5045ZM50.2174 26.3294C47.7037 27.6942 41.4321 31.9454 39.1671 33.8178L37.8346 34.9207C38.8174 31.0922 39.3282 29.9562 35.6254 29.6263C31.0818 29.2159 17.312 27.8101 15.991 27.6801C11.9545 27.2937 11.9545 27.2937 14.8085 26.9395C20.8336 26.2157 36.344 24.0829 37.6755 24.1157C37.9243 23.9467 39.0928 25.268 39.3193 20.1226C39.3761 18.6943 39.4855 17.5655 39.567 17.5978C39.855 17.7411 47.1109 23.8446 49.5931 25.4774C50.5093 26.098 50.5529 26.1441 50.2174 26.3294Z" fill="#15141A"/>
</svg>
