<svg width="64" height="49" viewBox="0 0 64 49" fill="none" xmlns="http://www.w3.org/2000/svg">
<g filter="url(#filter0_d_156_51378)">
<path d="M31.6355 13.0596C41.1162 6.62811 43.9025 4.85818 43.9025 4.38502C43.9025 4.05207 42.6407 4.27983 41.6943 4.78803C36.5773 7.52182 25.6421 15.285 25.905 16.0211C26.1154 16.6519 27.0616 16.1613 31.6355 13.0596Z" fill="black"/>
<path d="M59.8494 1.02041C59.8494 0.407061 58.395 -0.188768 57.5013 0.0565746C56.8353 0.231808 53.9438 2.24712 48.371 5.76948C42.9911 9.15166 41.7644 10.0804 42.0798 10.571C42.5706 11.3597 45.2342 9.37949 54.7674 4.12221C60.0071 1.2132 59.8494 1.30079 59.8494 1.02041Z" fill="black"/>
<path d="M36.3669 13.515C25.3616 19.771 27.7975 18.8423 19.1581 23.1708C11.4474 27.0437 10.4135 27.289 7.62715 26.0447C4.50783 24.6429 4.08727 25.0459 5.36654 28.2354C5.92731 29.6372 6.06749 30.1806 5.99738 30.7589C5.83966 32.0731 5.17375 33.9833 4.54286 34.8419C2.54511 37.6107 6.68082 36.4366 6.99625 36.2965C8.62602 35.5954 10.2733 36.2965 12.6566 38.6973C14.2338 40.2745 16.6872 40.5899 16.0914 39.1355C14.8121 36.0161 15.2152 32.8092 19.3859 29.1817C22.7681 26.255 27.8676 22.1895 32.3888 19.1053C38.9955 14.5839 39.5562 14.1108 39.013 13.4799C38.645 13.0419 37.1554 13.0594 36.3669 13.515ZM16.2316 28.7259C12.236 32.739 12.604 35.4378 12.4989 35.7533C10.2207 34.5792 10.5712 34.6667 7.66219 34.5091L8.11784 33.5277C9.11672 31.3722 8.34566 28.4807 8.34566 28.4632L9.65998 28.8836C12.1659 29.6723 14.2338 29.2868 16.8624 27.552C17.4232 27.1839 17.9314 26.8685 17.984 26.8685C18.0541 26.8509 17.2655 27.6922 16.2316 28.7259Z" fill="black"/>
</g>
<defs>
<filter id="filter0_d_156_51378" x="0" y="3.05176e-05" width="63.8499" height="48.0706" filterUnits="userSpaceOnUse" color-interpolation-filters="sRGB">
<feFlood flood-opacity="0" result="BackgroundImageFix"/>
<feColorMatrix in="SourceAlpha" type="matrix" values="0 0 0 0 0 0 0 0 0 0 0 0 0 0 0 0 0 0 127 0" result="hardAlpha"/>
<feOffset dy="4"/>
<feGaussianBlur stdDeviation="2"/>
<feComposite in2="hardAlpha" operator="out"/>
<feColorMatrix type="matrix" values="0 0 0 0 0 0 0 0 0 0 0 0 0 0 0 0 0 0 0.25 0"/>
<feBlend mode="normal" in2="BackgroundImageFix" result="effect1_dropShadow_156_51378"/>
<feBlend mode="normal" in="SourceGraphic" in2="effect1_dropShadow_156_51378" result="shape"/>
</filter>
</defs>
</svg>
