<svg width="76" height="67" viewBox="0 0 76 67" fill="none" xmlns="http://www.w3.org/2000/svg">
<path d="M63.7281 35.3831C65.2546 35.3598 65.1058 31.8337 63.1411 20.3548C61.0535 8.20527 60.1538 5.60188 58.4412 6.25689C56.097 7.18684 61.2585 35.3568 63.7281 35.3831Z" fill="#FF2B00"/>
<path d="M10.859 48.6532C11.2565 53.2213 12.0901 53.7401 22.3695 55.8413C32.9844 58.0228 35.0012 58.043 35.5755 56.0857C36.6022 52.5324 33.9767 51.053 20.982 47.6994C11.3934 45.2307 10.5655 45.2814 10.859 48.6532Z" fill="#FF2B00"/>
<path d="M24.6154 22.0632C24.8524 25.3631 25.6045 26.5071 29.8134 30.0558C42.3386 40.5343 50.4597 49.0207 49.8706 42.607C49.6479 39.9876 47.519 37.7975 33.273 25.0496C25.3646 18.0401 24.3271 17.6464 24.6154 22.0632Z" fill="#FF2B00"/>
</svg>
