<svg width="48" height="48" viewBox="0 0 48 48" fill="none" xmlns="http://www.w3.org/2000/svg">
<g clip-path="url(#clip0_156_51400)">
<path d="M23.9998 19.6363V28.9309H36.9161C36.3489 31.9199 34.6469 34.4509 32.0942 36.1527L39.8832 42.1964C44.4214 38.0075 47.0396 31.8547 47.0396 24.5456C47.0396 22.8438 46.8869 21.2073 46.6032 19.6366L23.9998 19.6363Z" fill="#15141A"/>
<path d="M10.5495 28.568L8.79275 29.9128L2.57446 34.7564C6.52354 42.589 14.6175 48 23.9992 48C30.4791 48 35.9117 45.8618 39.8827 42.1964L32.0937 36.1528C29.9555 37.5927 27.2282 38.4656 23.9992 38.4656C17.7593 38.4656 12.4576 34.2547 10.5593 28.5819L10.5495 28.568Z" fill="#15141A"/>
<path d="M2.57448 13.2436C0.938206 16.4726 0.00012207 20.1163 0.00012207 23.9999C0.00012207 27.8834 0.938206 31.5271 2.57448 34.7561C2.57448 34.7777 10.5601 28.5597 10.5601 28.5597C10.0801 27.1197 9.79636 25.5925 9.79636 23.9996C9.79636 22.4067 10.0801 20.8795 10.5601 19.4395L2.57448 13.2436Z" fill="#15141A"/>
<path d="M23.9997 9.55636C27.5343 9.55636 30.6761 10.7781 33.1852 13.1345L40.0578 6.2619C35.8905 2.37833 30.4798 0 23.9997 0C14.618 0 6.52354 5.38908 2.57446 13.2437L10.5598 19.44C12.4579 13.7672 17.7598 9.55636 23.9997 9.55636Z" fill="#15141A"/>
</g>
<defs>
<clipPath id="clip0_156_51400">
<rect width="48" height="48" fill="white"/>
</clipPath>
</defs>
</svg>
