<svg width="34" height="86" viewBox="0 0 34 86" fill="none" xmlns="http://www.w3.org/2000/svg">
<path d="M7.67035 82.3704C6.89696 82.0735 6.02931 82.4597 5.73241 83.2331C5.4355 84.0065 5.82177 84.8742 6.59517 85.1711L7.67035 82.3704ZM8.23263 21.6884L9.71598 21.4655L8.23263 21.6884ZM16.6183 3.6759L16.0574 2.28469V2.28469L16.6183 3.6759ZM23.7666 2.08126L24.1062 0.620192L23.7666 2.08126ZM27.3748 7.47782L28.8004 7.01124L27.3748 7.47782ZM2.30331 41.9729L0.852566 41.5916L2.30331 41.9729ZM6.6365 52.1354L5.82704 53.3982L5.82704 53.3982L6.6365 52.1354ZM32.0437 48.8485L33.1211 47.8048L31.0336 45.6501L29.9563 46.6939L32.0437 48.8485ZM19.7377 25.7774L18.8337 24.5804L19.7377 25.7774ZM11.9211 31.6809L11.017 30.4839L10.9741 30.5163L10.9336 30.5518L11.9211 31.6809ZM6.84222 36.1225L7.82969 37.2517H7.82969L6.84222 36.1225ZM6.59517 85.1711C7.61683 85.5633 8.67455 85.6313 9.67506 85.2305C10.6471 84.8412 11.3652 84.089 11.8959 83.2288C12.9293 81.5541 13.5152 79.0407 13.849 76.1579C14.5257 70.3142 14.2519 62.0584 13.5561 53.419L10.5658 53.6599C11.2595 62.2735 11.5096 70.2804 10.8689 75.8127C10.5441 78.6178 10.0109 80.5708 9.34282 81.6535C9.02283 82.1721 8.7447 82.3715 8.55958 82.4456C8.40297 82.5084 8.14273 82.5517 7.67035 82.3704L6.59517 85.1711ZM13.5561 53.419C13.0139 46.6875 12.2103 39.6638 11.3753 33.2649L8.40053 33.653C9.23152 40.0216 10.0289 46.9933 10.5658 53.6599L13.5561 53.419ZM11.3753 33.2649C10.8136 28.9598 10.2372 24.934 9.71598 21.4655L6.74929 21.9113C7.26822 25.3643 7.84175 29.3706 8.40053 33.653L11.3753 33.2649ZM17.1791 5.06711C18.5952 4.49625 19.9422 4.04121 21.0847 3.77026C22.285 3.48561 23.0551 3.45588 23.4271 3.54232L24.1062 0.620192C23.0193 0.367605 21.6728 0.547587 20.3925 0.851218C19.0544 1.16855 17.5566 1.68034 16.0574 2.28469L17.1791 5.06711ZM23.4271 3.54232C23.5648 3.57433 23.9627 3.79376 24.5123 4.66578C25.0246 5.47863 25.5135 6.61322 25.9492 7.94441L28.8004 7.01124C28.3269 5.56443 27.747 4.17162 27.0502 3.06613C26.3907 2.01981 25.4391 0.929959 24.1062 0.620192L23.4271 3.54232ZM0.852566 41.5916C-0.156806 45.4327 0.861259 50.2152 5.82704 53.3982L7.44597 50.8726C3.67635 48.4563 3.0438 45.0569 3.75406 42.3541L0.852566 41.5916ZM5.82704 53.3982C7.55858 54.5081 9.75632 54.9592 12.0081 55.0385L12.1137 52.0404C10.1339 51.9706 8.5436 51.5761 7.44597 50.8726L5.82704 53.3982ZM12.0081 55.0385C15.7419 55.1701 20.0276 54.2923 23.6677 53.0953C25.4986 52.4932 27.2006 51.7992 28.6239 51.0863C30.0201 50.3871 31.245 49.6223 32.0437 48.8485L29.9563 46.6939C29.4851 47.1503 28.5814 47.7524 27.2805 48.4039C26.0068 49.0418 24.4433 49.6822 22.7306 50.2454C19.2835 51.379 15.3695 52.1551 12.1137 52.0404L12.0081 55.0385ZM18.8337 24.5804L11.017 30.4839L12.8251 32.8779L20.6417 26.9744L18.8337 24.5804ZM10.9336 30.5518L8.90046 32.3298L10.8754 34.5881L12.9085 32.81L10.9336 30.5518ZM8.90046 32.3298L5.85476 34.9934L7.82969 37.2517L10.8754 34.5881L8.90046 32.3298ZM3.75406 42.3541C4.25617 40.4433 5.85083 38.9822 7.82969 37.2517L5.85476 34.9934C4.03645 36.5836 1.62998 38.6332 0.852566 41.5916L3.75406 42.3541ZM25.9492 7.94441C28.0155 14.2578 24.6653 20.1761 18.8337 24.5804L20.6417 26.9744C26.9301 22.2251 31.4485 15.1021 28.8004 7.01124L25.9492 7.94441ZM9.71598 21.4655C9.15652 17.7429 9.42032 14.275 10.6087 11.4424C11.7811 8.64766 13.8804 6.39687 17.1791 5.06711L16.0574 2.28469C11.9979 3.92116 9.31685 6.76679 7.84223 10.2818C6.3835 13.759 6.13357 17.8143 6.74929 21.9113L9.71598 21.4655Z" fill="#3F418C"/>
</svg>
