<svg width="351" height="26" viewBox="0 0 351 26" fill="none" xmlns="http://www.w3.org/2000/svg">
<path fill-rule="evenodd" clip-rule="evenodd" d="M9.1137 14.8895C16.5349 15.3805 35.9532 14.7024 88.6654 12.8342C170.977 9.91237 236.336 8.34247 254.544 8.89445C255.991 8.95581 140.653 14.052 128.779 13.8783C110.265 13.567 22.0932 17.6611 4.3929 19.4613C-0.639518 19.9529 1.2988 20.9521 4.59737 21.0599C9.74957 21.2522 23.5334 20.7054 61.3273 19.2347C87.9053 18.216 299.409 11.2928 322.587 12.0056C335.6 12.4051 343.518 12.9161 347.114 12.5922C350.125 12.3281 350.151 11.8683 347.483 10.7048C345.69 9.92963 347.651 9.36017 348.902 9.08455C350.823 8.63129 349.956 7.36309 347.479 6.42198C344.129 5.13066 338.454 5.37825 341.218 6.69118C341.817 6.97501 341.985 7.73362 339.907 7.65735C333.85 7.4219 291.052 5.86504 279.451 5.75764C155.583 4.51474 35.1213 13.2034 9.51681 12.7331C0.438627 12.5327 4.67899 14.5942 9.1137 14.8895Z" fill="#FF2B00"/>
</svg>
